<?xml version="1.0" encoding="UTF-8" standalone="no"?>
<!DOCTYPE svg PUBLIC "-//W3C//DTD SVG 1.1//EN"
 "http://www.w3.org/Graphics/SVG/1.1/DTD/svg11.dtd">
<!-- Generated by graphviz version 2.38.0 (20140413.2041)
 -->
<!-- Title: g Pages: 1 -->
<svg width="1420pt" height="456pt"
 viewBox="0.00 0.00 1420.16 455.57" xmlns="http://www.w3.org/2000/svg" xmlns:xlink="http://www.w3.org/1999/xlink">
<g id="graph0" class="graph" transform="scale(1 1) rotate(0) translate(4 451.571)">
<title>g</title>
<polygon fill="white" stroke="none" points="-4,4 -4,-451.571 1416.16,-451.571 1416.16,4 -4,4"/>
<!-- source -->
<g id="node1" class="node"><title>source</title>
<polygon fill="none" stroke="black" points="68,-232.571 0,-232.571 0,-196.571 68,-196.571 68,-232.571"/>
<text text-anchor="middle" x="34" y="-211.471" font-family="Times,serif" font-size="12.00">iptables</text>
</g>
<!-- autoconf -->
<g id="node2" class="node"><title>autoconf</title>
<ellipse fill="none" stroke="black" cx="393.574" cy="-429.571" rx="44.1452" ry="18"/>
<text text-anchor="middle" x="393.574" y="-426.471" font-family="Times,serif" font-size="12.00">autoconf</text>
</g>
<!-- source&#45;&gt;autoconf -->
<g id="edge1" class="edge"><title>source&#45;&gt;autoconf</title>
<path fill="none" stroke="green" stroke-dasharray="5,2" d="M52.3916,-232.856C90.4356,-271.677 185.548,-362.461 284,-407.571 301.482,-415.581 321.87,-420.691 340.228,-423.943"/>
<polygon fill="green" stroke="green" points="339.754,-427.412 350.187,-425.565 340.879,-420.503 339.754,-427.412"/>
</g>
<!-- automake -->
<g id="node3" class="node"><title>automake</title>
<ellipse fill="none" stroke="black" cx="393.574" cy="-386.571" rx="48.7631" ry="18"/>
<text text-anchor="middle" x="393.574" y="-383.471" font-family="Times,serif" font-size="12.00">automake</text>
</g>
<!-- source&#45;&gt;automake -->
<g id="edge2" class="edge"><title>source&#45;&gt;automake</title>
<path fill="none" stroke="green" stroke-dasharray="5,2" d="M58.6347,-232.658C101.257,-264.363 194.873,-329.894 284,-364.571 300.781,-371.1 319.81,-375.796 337.198,-379.127"/>
<polygon fill="green" stroke="green" points="336.754,-382.603 347.217,-380.934 337.997,-375.714 336.754,-382.603"/>
</g>
<!-- debhelper -->
<g id="node4" class="node"><title>debhelper</title>
<ellipse fill="none" stroke="black" cx="393.574" cy="-343.571" rx="50.4563" ry="18"/>
<text text-anchor="middle" x="393.574" y="-340.471" font-family="Times,serif" font-size="12.00">debhelper</text>
</g>
<!-- source&#45;&gt;debhelper -->
<g id="edge3" class="edge"><title>source&#45;&gt;debhelper</title>
<path fill="none" stroke="green" stroke-dasharray="5,2" d="M68.3941,-231.557C115.406,-254.854 204.285,-296.66 284,-321.571 300.957,-326.87 319.813,-331.21 336.989,-334.592"/>
<polygon fill="green" stroke="green" points="336.404,-338.043 346.881,-336.473 337.711,-331.166 336.404,-338.043"/>
</g>
<!-- dh&#45;autoreconf -->
<g id="node5" class="node"><title>dh&#45;autoreconf</title>
<ellipse fill="none" stroke="black" cx="393.574" cy="-300.571" rx="65.0054" ry="18"/>
<text text-anchor="middle" x="393.574" y="-297.471" font-family="Times,serif" font-size="12.00">dh&#45;autoreconf</text>
</g>
<!-- source&#45;&gt;dh&#45;autoreconf -->
<g id="edge4" class="edge"><title>source&#45;&gt;dh&#45;autoreconf</title>
<path fill="none" stroke="green" stroke-dasharray="5,2" d="M68.2945,-223.713C115.926,-236.658 206.349,-260.738 284,-278.571 298.621,-281.929 314.412,-285.283 329.302,-288.324"/>
<polygon fill="green" stroke="green" points="328.946,-291.823 339.442,-290.375 330.334,-284.962 328.946,-291.823"/>
</g>
<!-- libnetfilter&#45;conntrack&#45;dev -->
<g id="node6" class="node"><title>libnetfilter&#45;conntrack&#45;dev</title>
<ellipse fill="none" stroke="black" cx="393.574" cy="-257.571" rx="109.649" ry="18"/>
<text text-anchor="middle" x="393.574" y="-254.471" font-family="Times,serif" font-size="12.00">libnetfilter&#45;conntrack&#45;dev</text>
</g>
<!-- source&#45;&gt;libnetfilter&#45;conntrack&#45;dev -->
<g id="edge5" class="edge"><title>source&#45;&gt;libnetfilter&#45;conntrack&#45;dev</title>
<path fill="none" stroke="green" stroke-dasharray="5,2" d="M68.3186,-218.578C119.424,-224.724 219.158,-236.717 294.591,-245.788"/>
<polygon fill="green" stroke="green" points="294.251,-249.273 304.597,-246.992 295.087,-242.323 294.251,-249.273"/>
</g>
<!-- libnetfilter&#45;conntrack3 -->
<g id="node7" class="node"><title>libnetfilter&#45;conntrack3</title>
<ellipse fill="none" stroke="black" cx="393.574" cy="-214.571" rx="97.7568" ry="18"/>
<text text-anchor="middle" x="393.574" y="-211.471" font-family="Times,serif" font-size="12.00">libnetfilter&#45;conntrack3</text>
</g>
<!-- source&#45;&gt;libnetfilter&#45;conntrack3 -->
<g id="edge6" class="edge"><title>source&#45;&gt;libnetfilter&#45;conntrack3</title>
<path fill="none" stroke="green" stroke-dasharray="5,2" d="M68.3186,-214.571C117.332,-214.571 211.077,-214.571 285.213,-214.571"/>
<polygon fill="green" stroke="green" points="285.537,-218.071 295.537,-214.571 285.537,-211.071 285.537,-218.071"/>
</g>
<!-- libnfnetlink&#45;dev -->
<g id="node8" class="node"><title>libnfnetlink&#45;dev</title>
<ellipse fill="none" stroke="black" cx="393.574" cy="-171.571" rx="71.3163" ry="18"/>
<text text-anchor="middle" x="393.574" y="-168.471" font-family="Times,serif" font-size="12.00">libnfnetlink&#45;dev</text>
</g>
<!-- source&#45;&gt;libnfnetlink&#45;dev -->
<g id="edge7" class="edge"><title>source&#45;&gt;libnfnetlink&#45;dev</title>
<path fill="none" stroke="green" stroke-dasharray="5,2" d="M68.3186,-210.565C125.065,-203.741 241.77,-189.706 318.585,-180.469"/>
<polygon fill="green" stroke="green" points="319.171,-183.924 328.681,-179.255 318.335,-176.974 319.171,-183.924"/>
</g>
<!-- libtool -->
<g id="node9" class="node"><title>libtool</title>
<ellipse fill="none" stroke="black" cx="393.574" cy="-128.571" rx="34.4458" ry="18"/>
<text text-anchor="middle" x="393.574" y="-125.471" font-family="Times,serif" font-size="12.00">libtool</text>
</g>
<!-- source&#45;&gt;libtool -->
<g id="edge8" class="edge"><title>source&#45;&gt;libtool</title>
<path fill="none" stroke="green" stroke-dasharray="5,2" d="M68.2945,-205.429C115.926,-192.484 206.349,-168.405 284,-150.571 305.969,-145.526 330.579,-140.489 350.807,-136.511"/>
<polygon fill="green" stroke="green" points="351.506,-139.94 360.65,-134.59 350.165,-133.07 351.506,-139.94"/>
</g>
<!-- iptables -->
<g id="node10" class="node"><title>iptables</title>
<ellipse fill="none" stroke="black" cx="761.009" cy="-77.5713" rx="41.7203" ry="18"/>
<text text-anchor="middle" x="761.009" y="-74.4713" font-family="Times,serif" font-size="12.00">iptables</text>
</g>
<!-- source&#45;&gt;iptables -->
<g id="edge9" class="edge"><title>source&#45;&gt;iptables</title>
<path fill="none" stroke="purple" d="M67.1839,-196.453C113.48,-171.403 202.31,-127.078 284,-107.571 304.376,-102.706 590.056,-86.7824 708.81,-80.3269"/>
<polygon fill="purple" stroke="purple" points="709.299,-83.8056 719.095,-79.7688 708.92,-76.8159 709.299,-83.8056"/>
</g>
<!-- libxtables10 -->
<g id="node13" class="node"><title>libxtables10</title>
<ellipse fill="none" stroke="black" cx="1078.58" cy="-38.5713" rx="57.5003" ry="18"/>
<text text-anchor="middle" x="1078.58" y="-35.4713" font-family="Times,serif" font-size="12.00">libxtables10</text>
</g>
<!-- source&#45;&gt;libxtables10 -->
<g id="edge16" class="edge"><title>source&#45;&gt;libxtables10</title>
<path fill="none" stroke="purple" d="M53.9167,-196.293C92.9984,-159.939 187.13,-79.4876 284,-49.5713 547.356,31.761 883.689,-7.29643 1018.15,-28.2588"/>
<polygon fill="purple" stroke="purple" points="1017.82,-31.7499 1028.24,-29.8579 1018.91,-24.8361 1017.82,-31.7499"/>
</g>
<!-- iptables&#45;dev -->
<g id="node14" class="node"><title>iptables&#45;dev</title>
<ellipse fill="none" stroke="black" cx="393.574" cy="-70.5713" rx="57.7307" ry="18"/>
<text text-anchor="middle" x="393.574" y="-67.4713" font-family="Times,serif" font-size="12.00">iptables&#45;dev</text>
</g>
<!-- source&#45;&gt;iptables&#45;dev -->
<g id="edge13" class="edge"><title>source&#45;&gt;iptables&#45;dev</title>
<path fill="none" stroke="purple" d="M66.611,-196.378C112.934,-170.412 202.603,-122.754 284,-94.5713 299.485,-89.21 316.637,-84.7654 332.65,-81.2191"/>
<polygon fill="purple" stroke="purple" points="333.399,-84.6382 342.447,-79.1269 331.937,-77.7925 333.399,-84.6382"/>
</g>
<!-- libc6 -->
<g id="node11" class="node"><title>libc6</title>
<ellipse fill="none" stroke="black" cx="1383.23" cy="-74.5713" rx="28.8653" ry="18"/>
<text text-anchor="middle" x="1383.23" y="-71.4713" font-family="Times,serif" font-size="12.00">libc6</text>
</g>
<!-- iptables&#45;&gt;libc6 -->
<g id="edge10" class="edge"><title>iptables&#45;&gt;libc6</title>
<path fill="none" stroke="green" d="M800.725,-83.3016C868.918,-92.6889 1014.92,-109.629 1138.29,-102.571 1211.69,-98.3728 1296.9,-87.1241 1344.69,-80.2294"/>
<polygon fill="green" stroke="green" points="1345.49,-83.6511 1354.88,-78.7447 1344.48,-76.7244 1345.49,-83.6511"/>
</g>
<!-- libnfnetlink0 -->
<g id="node12" class="node"><title>libnfnetlink0</title>
<ellipse fill="none" stroke="black" cx="1078.58" cy="-81.5713" rx="59.9246" ry="18"/>
<text text-anchor="middle" x="1078.58" y="-78.4713" font-family="Times,serif" font-size="12.00">libnfnetlink0</text>
</g>
<!-- iptables&#45;&gt;libnfnetlink0 -->
<g id="edge11" class="edge"><title>iptables&#45;&gt;libnfnetlink0</title>
<path fill="none" stroke="green" d="M802.941,-78.0901C854.994,-78.7499 945.647,-79.899 1008.49,-80.6956"/>
<polygon fill="green" stroke="green" points="1008.68,-84.1981 1018.72,-80.8252 1008.76,-77.1986 1008.68,-84.1981"/>
</g>
<!-- iptables&#45;&gt;libxtables10 -->
<g id="edge12" class="edge"><title>iptables&#45;&gt;libxtables10</title>
<path fill="none" stroke="green" d="M801.338,-72.7107C854.865,-66.0956 951.252,-54.1836 1014.83,-46.3263"/>
<polygon fill="green" stroke="green" points="1015.63,-49.7536 1025.13,-45.0534 1014.78,-42.8064 1015.63,-49.7536"/>
</g>
<!-- libxtables10&#45;&gt;libc6 -->
<g id="edge17" class="edge"><title>libxtables10&#45;&gt;libc6</title>
<path fill="none" stroke="green" d="M1132.3,-44.842C1192.95,-52.0564 1291.03,-63.7234 1344.51,-70.0845"/>
<polygon fill="green" stroke="green" points="1344.24,-73.5773 1354.58,-71.2831 1345.07,-66.6263 1344.24,-73.5773"/>
</g>
<!-- iptables&#45;dev&#45;&gt;iptables -->
<g id="edge14" class="edge"><title>iptables&#45;dev&#45;&gt;iptables</title>
<path fill="none" stroke="green" d="M451.674,-69.9775C522.271,-70.5571 641.36,-72.8617 709.015,-74.9773"/>
<polygon fill="green" stroke="green" points="709.309,-78.4885 719.417,-75.3149 709.536,-71.4922 709.309,-78.4885"/>
</g>
<!-- iptables&#45;dev&#45;&gt;iptables -->
<g id="edge15" class="edge"><title>iptables&#45;dev&#45;&gt;iptables</title>
<path fill="none" stroke="red" d="M450.474,-73.8744C520.934,-76.2727 641.043,-78.5477 709.073,-78.7509"/>
<polygon fill="red" stroke="red" points="709.12,-82.2509 719.125,-78.7655 709.13,-75.2509 709.12,-82.2509"/>
</g>
</g>
</svg>
